<?xml version="1.0" encoding="UTF-8"?>
<svg width="522" height="522" xmlns="http://www.w3.org/2000/svg">
 <path d="m522 522h-522v-522h522zm-513.09-111c10.18 62.84 51.07 98.19 120.84 104.45 14.69 1.32 35.4 1.5 139.5 1.24 118.66-0.31 122.71-0.38 137.92-2.47 64.65-8.87 102.4-49.53 108.37-116.72 2.16-24.25 2.11-248.2-0.06-271.84-6.08-66.28-41.1-106.82-101.48-117.45-14.5-2.55-14.5-2.55-140-2.96-134.6-0.44-148.22-0.09-170.94 4.33-50.52 9.83-85.23 47.18-93.77 100.91-4.53 28.5-4.84 272.98-0.38 300.51" fill="rgba(0,0,0,0)"/>
 <path d="m8.91 411c-4.46-27.53-4.15-272.01 0.38-300.51 8.54-53.73 43.25-91.08 93.77-100.91 22.72-4.42 36.34-4.77 170.94-4.33 125.5 0.41 125.5 0.41 140 2.96 60.38 10.63 95.4 51.17 101.48 117.45 2.17 23.64 2.22 247.59 0.06 271.84-5.97 67.19-43.72 107.85-108.37 116.72-15.21 2.09-19.26 2.16-137.92 2.47-104.1 0.26-124.81 0.08-139.5-1.24-69.77-6.26-110.66-41.61-120.84-104.45m167.09 74.1c15 6.34 22.35 8.53 38.61 11.47 12.31 2.23 15.39 2.4 38.14 2.08 22.87-0.32 25.88-0.58 39.67-3.39 9.14-1.87 20.35-5.04 28.94-8.21 12.79-4.71 14.51-5.1 19.6-4.5 16.29 1.95 32.04-4.47 45.21-18.41 9.73-10.31 10.15-8.82 2.33 8.29-6.43 14.09-3.85 16.78 12.83 13.39 25.73-5.24 41.46-22.49 42.62-46.76 0.55-11.44 0.55-11.44 7.29-9.63 24.64 6.62 56.34-9.67 41.65-21.42-19.28-15.42-30.48-40.21-35.07-77.61-2.04-16.69-2.04-16.69 2.59-26.41 9.03-18.93 8.58-36.57-1.44-56.28-4.97-9.79-4.97-9.79-4.96-22 0-12.21 0-12.21 12-28.71 14.9-20.51 14.75-19.19 3.77-33.04-8.23-10.36-8.23-10.36-5.92-12.91 8.22-9.12 12.49-29.51 11.83-56.55-1.33-54.61-23.39-64.91-71.83-21.43l-9.16-9.68c-17.15-18.09-35.47-27.54-62.1-32.01-22.47-3.78-159.03-3.69-180.82 0.11-51.18 8.94-88.29 48.81-101.98 109.55-4.31 19.15-5.77 214.35-1.8 241.34 4.96 33.69 20.21 61.43 41.2 74.94 8.01 5.16 8.69 5.29 11.4 2.2 2.36-2.69 2.36-2.69 8.95 2.96 19.55 16.76 34.75 22.5 35.65 13.46 0.34-3.4 2.96-2.62 30.8 9.16" fill="rgba(160,181,244,0.988235)"/>
 <path d="m176 485.1c-27.84-11.78-30.46-12.56-30.8-9.16-0.9 9.04-16.1 3.3-35.65-13.46-6.59-5.65-6.59-5.65-8.95-2.96-2.71 3.09-3.39 2.96-11.4-2.2-20.99-13.51-36.24-41.25-41.2-74.94-3.97-26.99-2.51-222.19 1.8-241.34 13.69-60.74 50.8-100.61 101.98-109.55 21.79-3.8 158.35-3.89 180.82-0.11 26.63 4.47 44.95 13.92 62.1 32.01l9.16 9.68c48.44-43.48 70.5-33.18 71.83 21.43 0.66 27.04-3.61 47.43-11.83 56.55-2.31 2.55-2.31 2.55 5.92 12.91 10.98 13.85 11.13 12.53-3.77 33.04-12 16.5-12 16.5-12 28.71-0.01 12.21-0.01 12.21 4.96 22 10.02 19.71 10.47 37.35 1.44 56.28-4.63 9.72-4.63 9.72-2.59 26.41 4.59 37.4 15.79 62.19 35.07 77.61 14.69 11.75-17.01 28.04-41.65 21.42-6.74-1.81-6.74-1.81-7.29 9.63-1.16 24.27-16.89 41.52-42.62 46.76-16.68 3.39-19.26 0.7-12.83-13.39 7.82-17.11 7.4-18.6-2.33-8.29-13.17 13.94-28.92 20.36-45.21 18.41-5.09-0.6-6.81-0.21-19.6 4.5-8.59 3.17-19.8 6.34-28.94 8.21-13.79 2.81-16.8 3.07-39.67 3.39-22.75 0.32-25.83 0.15-38.14-2.08-16.26-2.94-23.61-5.13-38.61-11.47m9.23-4.21c9.86 3.92 25.92 7.62 41.52 9.58 6.74 0.84 13.83 1.53 15.75 1.53 1.93 0 3.5-0.22 3.5-0.5 0-0.27-0.43-0.5-0.96-0.5-2.42 0-11.92-10.83-12.99-14.82-1.67-6.18 0.72-11.73 6.09-14.13 4.02-1.8 4.02-1.8-2.57-2.51-3.62-0.38-11.07-1.71-16.56-2.94-9.98-2.25-9.98-2.25-12.74 0.69-2.68 2.85-17.6 12.93-25.75 17.4-4.76 2.61-4.94 2.37 4.71 6.2m77.77-20.89-2.75 0.33c-2.15 0.26-2.37 0.48 0.75 1.67l2.43 1.36c7.23 4.07 4.58 16.62-5.09 24.01-2.59 1.98-4.44 3.86-4.12 4.18 2.87 2.88 55.22-6.67 67.28-12.27 6-2.78 6-2.78-5.5-8.34-6.33-3.06-14.33-7.7-17.79-10.31-6.3-4.74-6.3-4.74-35.21-0.63zm-16.02 7.44c-11.74-6.5-13.6 7.56-2.23 16.89 1.79 1.47 3.72 2.67 4.29 2.67 0.58 0 3.45-1.98 6.39-4.4 10.64-8.76 8.12-21.07-3.13-15.26-2.43 1.26-3.2 1.28-5.32 0.1m150.91-72.44c10.25 30.73 10.82 49.49 2.19 72.25-4.08 10.75-4.08 10.75 0.67 10.24 2.61-0.28 7.99-2.09 11.95-4.03 22.69-11.1 28.32-31.38 18.07-65.1-5.69-18.7-9.17-36.77-11.3-58.61-0.9-9.21-2.01-16.75-2.47-16.75-2.45 0-4 1.49-4.01 3.86-0.01 4.11-2.41 7.8-5.46 8.38-3.77 0.72-8.53-2.38-8.53-5.56 0-3.03-1.51-4.26-6-4.9-3.5-0.51-3.5-0.51-6.07 6.96-2.97 8.61-1.42 16.16 10.96 53.26m-34.59-4.24c-0.39 28.34-7.03 64.94-14.24 78.49-3.06 5.75-3.06 5.75-0.31 5.73 1.51-0.01 5.68-0.64 9.25-1.4 15.58-3.33 30.97-20.52 35.45-39.58 3.49-14.89 2.33-25.61-12.99-77.78l-8.48 9.86c-8.48 9.87-8.48 9.87-8.68 24.68m-234.92 52.24c4.68 10.41 15.01 20.04 27.87 25.97 4.81 2.22 9.99 4.01 11.5 3.99 1.51-0.01 3.82-0.63 5.13-1.35 2.38-1.32 2.38-1.32-3.72-8.35-11.81-13.59-18.76-34.56-19.88-60.02-0.58-13.27-0.58-13.27-5.68-16.92-9.79-7.01-17.98-14.88-24.27-23.31-6.33-8.49-6.33-8.49-6.32-2 0.03 20.94 8.68 67.09 15.37 81.99m228.62-41 1-11v-3.49c0-1.92-0.36-3.93-0.81-4.48-1.28-1.56-27.07 13.6-27.7 16.29-0.29 1.2-1.63 9.8-2.98 19.1-1.94 13.33-3.47 19.86-7.2 30.72-4.75 13.78-4.75 13.78-1.96 15.76 4.82 3.42 19.15 7.65 22.21 6.55 5.79-2.07 15.9-37.64 17.44-69.45zm-81-177-0.69 1.97c-0.68 1.93 0.35 4.19 1.69 2.03l2.25-5.04c26.53-59.41 27.43-132.88-2.25-184.96h-101l-7.24 3.75c-48.78 25.28-98 103.38-106.76 183.25v12l-0.25 7.45c-0.26 7.87-1.63 10.93-4.75 6.55v-22-8l1.75-14.75c0.96-8.11 2.31-17.56 4.25-27.25l3.12-9.75c14.44-45.11 47.93-93.94 82.69-120.56 12.19-9.34 12.01-9.91-2.23-6.9-47.62 10.07-84.11 58.55-91.58 134.21v46 8 15l-0.12 48.25c-0.17 64.49 0.82 82.71 5.48 101.76 4.29 17.55 12.21 33.11 27.93 49.49l-2.79-17.5c-3.54-22.28-4.76-53.8-2.17-56.56 3.28-3.51 3.95-1.33 5.25 17.11 2.53 35.97 14.35 60.72 35.68 74.7 7.87 5.16 7.89 5.06 1.96-9.39-10.57-25.79-15.65-51.56-18.1-91.87-1.74-28.51-1.74-28.51-9.22-36-11.39-11.4-18.95-26.8-13.65-27.83 1.32-0.26 3.15 2.19 7.39 9.87 6.57 11.88 14.77 19.88 25.05 24.43 8.33 3.69 8.61 3.29 4.15-5.96-5.61-11.62-11.75-31.94-13.39-44.32-0.78-5.88-2.56-13.6-3.95-17.18-3.72-9.54-5.68-30.06-3.15-32.96 3.64-4.17 4.41-2.73 4.81 9.09 0.49 14.29 0.45 14.26 13.31 9.77 9.74-3.4 9.74-3.4 10.7-10.4 2.28-16.52 8.21-45.9 9.77-48.34 2.86-4.52 5.1-1.97 5.64 6.4 1.25 19.63 8.22 45.48 12.83 47.58 3.22 1.47 14.53-0.29 15.74-2.44 0.49-0.88 1.92-8.26 3.16-16.4 2.15-14.02 2.39-14.8 4.53-14.8 2.1 0 2.41 0.88 4.64 13.02 2.78 15.19 5.76 24.14 8.27 24.83 8.84 2.44 11.45 2 15.76-2.64 6.6-7.11 13.12-19.94 17.94-35.31 3.66-11.65 4.7-13.95 6.47-14.22 3.21-0.49 3.5 3.27 2.13 27.87-0.68 12.07-0.86 21.95-0.41 21.95s3.41-2.73 6.58-6.06c13.82-14.54 23.7-40.98 26.82-71.81 1.44-14.15 2.12-17.82 3.46-18.6 3.6-2.1 3.89 1.45 2.5 73.47zm-121.65 179.75c1.45 23.91 9.26 45.51 20.64 57.13 2.76 2.82 5.35 5.12 5.78 5.12 0.42 0 3.68-1.75 7.25-3.89 16.35-9.79 19.65-16.06 21.25-50.95l-14.6-3.6c-9.26-2.28-18.73-5.44-25.88-8.64-16.91-7.54-15.22-8.11-14.44 4.83m97.65 56.5c0-1.29-2.25-1.57-3.15-0.38-0.56 0.75-0.18 1.13 1.15 1.13 1.1 0 2-0.34 2-0.75m43.05-21.99c1.21 11.24 1.21 11.24 6.58 16.49 2.95 2.89 5.86 5.25 6.47 5.25 0.6 0 2.43-3.18 4.06-7.07 5.14-12.23 13.6-51.5 11.54-53.57-0.18-0.18-3.75 0.99-7.92 2.59-4.17 1.61-11.23 3.92-15.68 5.14-8.1 2.22-8.1 2.22-8.1 10.51 0 4.55 0.41 8.54 0.92 8.85 0.5 0.31 1.46 5.62 2.13 11.81m-82.06 1.72c-2.03 7.29-0.66 8.05 20.76 11.52 5.09 0.83 12.96 1.5 17.5 1.49 4.54 0 12.93-0.66 18.65-1.47 18.52-2.6 20.3-3.59 19.51-10.86-0.37-3.39-0.78-6.29-0.9-6.44-0.13-0.15-3.56 0.68-7.62 1.85-12.98 3.74-35.48 4.75-52.66 2.37-14.26-1.98-14.26-1.98-15.24 1.54m2.01-19.66c0 9.83-0.48 9.25 9.43 11.2 5.55 1.08 12.57 1.39 26.32 1.13 15.44-0.29 20.21-0.75 27-2.57 9.25-2.49 9.03-2.06 7.4-14.58-0.65-5-0.65-5-11.65-3.22-10.93 1.78-48.22 1.86-55.75 0.12-2.75-0.63-2.75-0.63-2.75 7.92m222.48-11.51c2.68 5.74 6.96 8.88 15.96 11.74 2.51 0.8 7.4 1.45 10.88 1.45 3.47 0 8.54-0.67 11.25-1.48 11.57-3.49 11.9-5.28 2.72-14.84-14.16-14.75-23.11-37.01-28.75-71.5-2.78-16.97-2.25-16.16-7.99-12.21-2.53 1.73-7.51 4.52-11.07 6.19-6.48 3.03-6.48 3.03-6.48 10.25 0 17.39 7.84 58.31 13.48 70.4m-63.48-57.81 2-3 0.97-1.75c0.54-0.96 2.79-5.95 5-11.08 4.03-9.32 4.03-9.32 9.02-8.61 6.23 0.89 6.71 0.39 7.97-8.31 2.26-15.64 14.04-13.18 14.04 2.94 0 6.83 5.44 6.61 18.67-0.76 22.95-12.77 32.28-32.57 26.85-56.98-4.87-21.92-26.22-37.85-44.33-33.1-7.85 2.07-8.85 3.55-10.12 15.05-1.31 11.78-1.6 11.51 7.2 6.55 8.63-4.87 18.09-6.45 21.35-3.57 2.87 2.53-0.02 4.62-6.38 4.62-14.53 0-22.07 8.77-29.71 34.57-4.27 14.42-7.29 22.32-12.96 33.87-5.19 10.58-7.56 16.62-8.57 25.56l-2 3-1.85 2.25c-1.02 1.24-5.64 3.87-10.25 5.84-4.62 1.97-9.02 4.34-9.77 5.25-2.1 2.54-5.11 2.04-6.5-1.09-1.23-2.75-1.23-2.75-19.04-3.25s-17.81-0.5-22.82-4c-10.13-7.07-10.09-21.24 0.08-28.5 4.2-3 4.2-3 28.2-3.5 29.62-0.62 26.43 2.02 30.12-24.91 4.31-31.56 4.01-38.83-1.73-41.29-7.8-3.35-8.72-2.62-6.44 13.2v13l-1.25 7.3c-4.5 26.27-33.35 36.02-49.77 16.82-9.04-10.57-11.36-28.87-5.92-46.59 2.58-8.39 2.82-8.16-6.69-6.57-13.61 2.27-11.07-2.29 6.05-10.88 14.02-7.04 25.87-9.5 41.83-8.7 6.17 0.31 10.75 0.15 10.75-0.37 0-2.21-10.98-26.79-12.43-27.84-1.07-0.77-6.81-1.17-16.76-1.17-16.15 0-19.32-0.9-15.76-4.45 1.25-1.24 4.18-1.55 14.84-1.55 10.56 0 13.4-0.29 13.82-1.42 0.73-1.96-12.19-23.5-19.88-33.14-7.29-9.14-5.67-11.58-12.82 19.35-3.45 14.89-5.11 19.78-11.97 35.13-13.83 30.97-18.34 34.53-17.04 3.08l1-10-0.25-4.75c-0.32-6.01-0.82-5.45-4.33 4.86-4.39 12.85-12.44 25.86-21.86 35.3-13 13.05-16.27 12.82-14.71-1.03 0.48-4.33 1.05-11.48 1.65-23.87l-5.5 10.71c-9.15 17.81-12.31 21.11-20.64 21.48-10.64 0.47-12.85 1.27-11.96 4.3 7.91 26.9 4.39 44.47-10.9 54.39-24.87 16.13-51.35-9.92-44.6-43.89 1.09-5.5 1.63-10.45 1.2-11-2.22-2.85-22.2 5.8-24.85 10.76-5.04 9.45 16.46 73.28 22.95 68.12 3.86-3.07 8.21-3.94 12.49-2.52 3.66 1.22 4.01 1.13 8.81-2.26 7.13-5.04 8.49-5.22 14.67-1.93 7.86 4.18 9.59 9.66 5.48 17.41-2.19 4.15-2.59 5.72-1.74 6.9 0.61 0.83 2.56 3.53 4.35 5.98 3.24 4.47 3.24 4.47 1.23 10-3.24 8.94-8.43 11.35-17.26 8.02-6.59-2.48-6.59-2.48-9.46 0.72-3.8 4.25-3.51 4.5 13.57 12.09 67.26 29.87 162.34 14.33 204.66-40.79zm-224.59 1.71c-12.32 18.01-12.63 19.32-5.91 24.69 4.5 3.6 4.5 3.6 17.64-13.15 7.23-9.21 13.76-18.21 14.52-20 1.85-4.39-1.33-9.29-6.92-10.68-4.98-1.23-6.25 0.02-19.33 19.14m17.62 11.5c-5.13 6.72-5.11 8.03 0.16 10.83 0.99 0.53 2.74 0.96 3.89 0.96 1.14 0 3.39-1.32 5-2.92 4.14-4.15 3.93-7.98-0.66-12.02-3.58-3.14-3.58-3.14-8.39 3.15m-53.7-26.87c-1.21 1.21 7.06 16.26 12.79 23.26 6.88 8.4 6.88 8.4 10.03 3.45 3.14-4.95 3.14-4.95-0.13-8.67-3.04-3.47-3.23-4.1-2.71-9.05 0.3-2.93 0.47-5.27 0.37-5.19-1.37 1.04-5.79 0.48-12.21-1.55-4.33-1.38-8-2.39-8.14-2.25m32.12 1.66c-5.85 0-9.67 8.41-5.95 13.11 0.83 1.04 1.93 1.89 2.46 1.89s2.82-2.73 5.08-6.06c4.65-6.84 4.27-8.94-1.59-8.94m201.55 14-26-1-3-2v-15l0.75-2.25c1.04-3.11 31.56-3.59 32.25 1.25l0.32 3.25c0.23 2.38 0.5 2.78 1.68-0.25l0.65-3.6c0.93-5.2 0.24-5.37-22.27-5.38-17.88-0.02-20.57 0.2-24.26 1.93-9.47 4.45-9.32 16.93 0.25 21.94 4.86 2.54 4.92 2.54 39.63 1.11zm23.07-77.72c-2.21 25.24-7.72 51.8-15.65 75.47-0.23 0.69-0.26 1.25-0.07 1.25 0.2 0 2.74-2.52 5.66-5.6 18.25-19.3 31.95-54.39 36.97-94.69 3.42-27.5 6.08-23.3-23.57-37.17-15.36-7.18-25.97-12.72-26.59-13.88-1.46-2.73 0.54-11.98 4.75-21.95 1.88-4.48 3.43-8.28 3.43-8.43s-2.27-0.28-5.04-0.28c-16.97 0-38.51-44.33-40.55-83.49-1.02-19.45 3.07-22.97 23.59-20.26 16.67 2.21 30.94 7.28 43.01 15.3 9.6 6.39 9.6 6.39 15.01 5.04 6.42-1.61 6.73-2.2 4.02-7.52-8.38-16.41-33.56-32.86-59.06-38.57-9.65-2.17-52.29-4.01-51.93-2.25 0.03 0.14 1.84 4.08 4.04 8.75 11.36 24.24 16.88 49.19 17.66 79.91 0.54 21.4 0.54 21.4 7.56 29.5 14.17 16.33 40.69 67.14 40.69 77.94 0 1.92 2.3 3.24 7.27 4.17 3.73 0.7 3.73 0.7 3.73-9 0-9.02 0.15-9.75 2.1-10.26 3.22-0.84 3.87 1.28 3.9 12.74 0.03 10.5 0.03 10.5 7.02 14.2 8.16 4.33 8.5 5.47 4.05 13.55-3.14 5.7-3.75 5.98-8 3.78-2.84-1.46-2.84-1.46-4 11.75m-1.73 69.55c-0.64 1.02-0.97 2.15-0.75 2.51 0.23 0.36 0.91 0.01 1.51-0.78 0.61-0.79 0.95-1.92 0.75-2.51s-0.88-0.24-1.51 0.78m-45.34 2.17h12c12 0 12 0 12-6s0-6-13-6h-6.22c-6.23 0-6.23 0-4.78 12zm81.76-34.16c-1.33 1.33-2.48 23-1.37 25.69 0.34 0.81 1.4 1.36 2.36 1.22 1.55-0.22 1.78-1.75 2.03-13.17 0.29-13.04-0.44-16.32-3.02-13.74m-224.76-43.84v10l-0.6 3.57c-1.55 9.29-12.22 14.65-18.58 9.34-3.45-2.89-6.82-12.04-6.82-18.54 0-3.94-0.31-4.61-2.34-5.07-15.16-3.4-10.9 31.73 4.95 40.89 18.54 10.7 38.57-7.35 35.39-31.88-1.05-8.07-2.69-9.85-12-8.31zm119 9.33c0 14.9 4.15 24.58 12.92 30.1 3.35 2.11 5.3 2.57 10.88 2.57 5.8 0 7.49-0.43 11.39-2.91 8.43-5.34 14.92-18.93 14.74-30.88-0.11-7.34-0.68-8.05-7.18-8.81-5.75-0.68-5.75-0.68-5.75 4.93 0 15.16-8.93 23.59-18.63 17.59-4.35-2.69-7.37-9.8-7.37-17.33 0-5.59 0-5.59-3.57-5.59-6.68 0-7.43 1.05-7.43 10.33m-138.66-5.78c-0.68 4.93 0.78 11.3 3.17 13.86 0.82 0.87 2.6 1.59 3.96 1.59 1.58 0 3.26-1.07 4.67-2.97 1.67-2.26 2.19-4.37 2.19-8.83 0-7.77-0.39-8.2-7.41-8.2-5.96 0-5.96 0-6.58 4.55m156.86 0.86c-0.34 6.55 1.07 11.08 3.92 12.59 1.41 0.75 2.63 0.51 4.89-0.96 2.35-1.52 3.15-2.91 3.6-6.25 1.34-9.97 0.63-11.29-6.11-11.29-6 0-6 0-6.3 5.91m-134.3-38.42c-1.16-3.64-2.5-2.08-2.8 3.26-0.06 1.12 0.62 1.75 1.9 1.75 1.1 0 2-0.34 2-0.76 0-0.41-0.5-2.33-1.1-4.25m-40.9-21.99-0.36-1.75c-0.35-1.67-0.39-1.67-1.64 1.75l-1.54 10.57c-1.79 12.28-1.08 14.24 4.15 11.43 2.79-1.5 2.79-1.5-0.61-22zm266-32 1 23v10.01c0 10 0 10 8.25 9.41 7.6-0.54 8.88-0.34 16.25 2.54 10.83 4.22 11 4.22 11 0.14 0-3.06-0.38-3.52-3.66-4.5-3.66-1.1-3.66-1.1-10.87-21.1-10.22-28.35-13.47-35.5-16.16-35.5-3.8 0-5.81 3.49-5.81 16zm-37.86 24.86c9.55 4.43 20.17 9.65 23.61 11.6s6.91 3.54 7.72 3.54c1.28 0 1.39-3.72 0.88-27.75-0.6-27.75-0.6-27.75-4.66-30.75-7.21-5.34-12.53-11.27-13.62-15.19-1.83-6.66-18.13 13.05-25.03 30.28-8.4 20.98-9.23 18.84 11.1 28.27m58.15-27.75c4.18 10.66 8.74 23.1 10.15 27.64s2.87 8.25 3.25 8.25c0.37 0 1.77-1.01 3.1-2.25 3.44-3.21 15.91-18.91 27.33-35.4l-9.8-12.32c-9.37-11.79-31.07-29.05-31.94-25.42-1.37 5.68-4.14 12.28-6.63 15.78-3.05 4.32-3.05 4.32 4.54 23.72m-110.43-104.19c-9.81 7.96 12.66 79.84 27.54 88.08 2.19 1.22 4.48 1.76 5.85 1.4 1.24-0.34 3.52-1.26 5.07-2.06 3.31-1.72 25.72-25.72 30.43-32.59 8.69-12.69 1.12-20.12-17.3-16.97-6.22 1.06-7.45 0.69-7.45-2.27 0-3.27 4.3-4.51 15.65-4.51 5.14 0 9.35-0.24 9.35-0.54 0-15.55-56.73-40.61-69.14-30.54m75.02 58.88c-5.87 6.58-3.14 15.55 6.62 21.72 3.02 1.91 6.79 3.48 8.36 3.48 2.15 0 4.04-1.26 7.56-5.02 5.41-5.78 7.58-10.3 7.58-15.77 0-7.34-8.05-11.44-14.05-7.17-3.01 2.14-3.45 2.19-8.18 0.9-5-1.36-5-1.36-7.89 1.86m32.88-6.4c3.26 2.5 10.72 7.48 16.58 11.07 8.8 5.39 11.32 6.49 14.41 6.28 3.36-0.22 3.98-0.72 6.02-4.81 11.72-23.62 5.84-86.34-8.31-88.64-14.72-2.39-57.92 31.86-49.22 39.02 0.79 0.65 2.38 2.84 3.53 4.87 2.1 3.7 2.1 3.7 9.02 0.14 7.41-3.8 11.21-3.88 11.21-0.25 0 1.38-1.51 2.62-5.25 4.27-6.08 2.7-9.2 5.67-6.75 6.45 8.47 2.7 15.65 8.9 13.17 11.37-1.11 1.11-2.44 0.83-7.9-1.67-3.62-1.65-6.91-3.14-7.32-3.3-0.41-0.17-0.91 1.93-1.1 4.66-0.34 4.89-0.3 4.97 2.82 5.47 1.74 0.29 5.83 2.56 9.09 5.07m-30.2-12.84c0.68 7.04 0.69 7.07 4.06 7.75 1.86 0.38 3.81 0.69 4.34 0.69 0.54 0 1.48-0.96 2.11-2.13 4.07-7.61-2.3-25.87-9.3-26.68-4.94-0.57-5.52 0.61-3.61 7.31 0.95 3.3 2.02 9.18 2.4 13.06" fill="rgba(22,20,45,1)"/>
 <path d="m55 246 2 6c3.12 4.38 4.49 1.32 4.75-6.55l0.25-7.45v-12c8.76-79.87 57.98-157.97 106.76-183.25l7.24-3.75h101c29.68 52.08 28.78 125.55 2.25 184.96l-2.25 5.04-1-4c1.39-72.02 1.1-75.57-2.5-73.47-1.34 0.78-2.02 4.45-3.46 18.6-3.12 30.83-13 57.27-26.82 71.81-3.17 3.33-6.13 6.06-6.58 6.06s-0.27-9.88 0.41-21.95c1.37-24.6 1.08-28.36-2.13-27.87-1.77 0.27-2.81 2.57-6.47 14.22-4.82 15.37-11.34 28.2-17.94 35.31-4.31 4.64-6.92 5.08-15.76 2.64-2.51-0.69-5.49-9.64-8.27-24.83-2.23-12.14-2.54-13.02-4.64-13.02-2.14 0-2.38 0.78-4.53 14.8-1.24 8.14-2.67 15.52-3.16 16.4-1.21 2.15-12.52 3.91-15.74 2.44-4.61-2.1-11.58-27.95-12.83-47.58-0.54-8.37-2.78-10.92-5.64-6.4-1.56 2.44-7.49 31.82-9.77 48.34-0.96 7-0.96 7-10.7 10.4-12.86 4.49-12.82 4.52-13.31-9.77-0.4-11.82-1.17-13.26-4.81-9.09-2.53 2.9-0.57 23.42 3.15 32.96 1.39 3.58 3.17 11.3 3.95 17.18 1.64 12.38 7.78 32.7 13.39 44.32 4.46 9.25 4.18 9.65-4.15 5.96-10.28-4.55-18.48-12.55-25.05-24.43-4.24-7.68-6.07-10.13-7.39-9.87-5.3 1.03 2.26 16.43 13.65 27.83 7.48 7.49 7.48 7.49 9.22 36 2.45 40.31 7.53 66.08 18.1 91.87 5.93 14.45 5.91 14.55-1.96 9.39-21.33-13.98-33.15-38.73-35.68-74.7-1.3-18.44-1.97-20.62-5.25-17.11-2.59 2.76-1.37 34.28 2.17 56.56l2.79 17.5c-15.72-16.38-23.64-31.94-27.93-49.49-4.66-19.05-5.65-37.27-5.48-101.76zm76.56-71.76c-44.68-0.27-46.15-0.15-45.13 3.63 0.57 2.13 0.57 2.13 44.82 1.88s44.25-0.25 44.25-2.75 0-2.5-43.94-2.76m8.29-48.24c-42.32 0-42.33 0-40.46 4.52 0.52 1.27 6.27 1.48 41.14 1.48 35.26 0 40.61-0.2 41.11-1.51 1.67-4.34 0.31-4.49-41.79-4.49" fill="rgba(160,181,244,0.988235)"/>
 <path d="m271 213-1 10c-1.3 31.45 3.21 27.89 17.04-3.08 6.86-15.35 8.52-20.24 11.97-35.13 7.15-30.93 5.53-28.49 12.82-19.35 7.69 9.64 20.61 31.18 19.88 33.14-0.42 1.13-3.26 1.42-13.82 1.42-10.66 0-13.59 0.31-14.84 1.55-3.56 3.55-0.39 4.45 15.76 4.45 9.95 0 15.69 0.4 16.76 1.17 1.45 1.05 12.43 25.63 12.43 27.84 0 0.52-4.58 0.68-10.75 0.37-15.96-0.8-27.81 1.66-41.83 8.7-17.12 8.59-19.66 13.15-6.05 10.88 9.51-1.59 9.27-1.82 6.69 6.57-5.44 17.72-3.12 36.02 5.92 46.59 16.42 19.2 45.27 9.45 49.77-16.82l1.25-7.3v-13c-2.28-15.82-1.36-16.55 6.44-13.2 5.74 2.46 6.04 9.73 1.73 41.29-3.69 26.93-0.5 24.29-30.12 24.91-24 0.5-24 0.5-28.2 3.5-10.17 7.26-10.21 21.43-0.08 28.5 5.01 3.5 5.01 3.5 22.82 4s17.81 0.5 19.04 3.25c1.39 3.13 4.4 3.63 6.5 1.09 0.75-0.91 5.15-3.28 9.77-5.25 4.61-1.97 9.23-4.6 10.25-5.84l1.85-2.25 1 1c-42.32 55.12-137.4 70.66-204.66 40.79-17.08-7.59-17.37-7.84-13.57-12.09 2.87-3.2 2.87-3.2 9.46-0.72 8.83 3.33 14.02 0.92 17.26-8.02 2.01-5.53 2.01-5.53-1.23-10-1.79-2.45-3.74-5.15-4.35-5.98-0.85-1.18-0.45-2.75 1.74-6.9 4.11-7.75 2.38-13.23-5.48-17.41-6.18-3.29-7.54-3.11-14.67 1.93-4.8 3.39-5.15 3.48-8.81 2.26-4.28-1.42-8.63-0.55-12.49 2.52-6.49 5.16-27.99-58.67-22.95-68.12 2.65-4.96 22.63-13.61 24.85-10.76 0.43 0.55-0.11 5.5-1.2 11-6.75 33.97 19.73 60.02 44.6 43.89 15.29-9.92 18.81-27.49 10.9-54.39-0.89-3.03 1.32-3.83 11.96-4.3 8.33-0.37 11.49-3.67 20.64-21.48l5.5-10.71c-0.6 12.39-1.17 19.54-1.65 23.87-1.56 13.85 1.71 14.08 14.71 1.03 9.42-9.44 17.47-22.45 21.86-35.3 3.51-10.31 4.01-10.87 4.33-4.86zm-26.07 136c-10.76 0-13.49 1.25-11.12 5.08 1.05 1.7 2.41 1.92 11.68 1.92 9.52 0 10.61-0.19 11.75-2.06 2.2-3.6-1.14-4.94-12.31-4.94" fill="rgba(252,242,239,1)"/>
 <path d="m370.07 276.28c1.16-13.21 1.16-13.21 4-11.75 4.25 2.2 4.86 1.92 8-3.78 4.45-8.08 4.11-9.22-4.05-13.55-6.99-3.7-6.99-3.7-7.02-14.2-0.03-11.46-0.68-13.58-3.9-12.74-1.95 0.51-2.1 1.24-2.1 10.26 0 9.7 0 9.7-3.73 9-4.97-0.93-7.27-2.25-7.27-4.17 0-10.8-26.52-61.61-40.69-77.94-7.02-8.1-7.02-8.1-7.56-29.5-0.78-30.72-6.3-55.67-17.66-79.91-2.2-4.67-4.01-8.61-4.04-8.75-0.36-1.76 42.28 0.08 51.93 2.25 25.5 5.71 50.68 22.16 59.06 38.57 2.71 5.32 2.4 5.91-4.02 7.52-5.41 1.35-5.41 1.35-15.01-5.04-12.07-8.02-26.34-13.09-43.01-15.3-20.52-2.71-24.61 0.81-23.59 20.26 2.04 39.16 23.58 83.49 40.55 83.49 2.77 0 5.04 0.13 5.04 0.28s-1.55 3.95-3.43 8.43c-4.21 9.97-6.21 19.22-4.75 21.95 0.62 1.16 11.23 6.7 26.59 13.88 29.65 13.87 26.99 9.67 23.57 37.17-5.02 40.3-18.72 75.39-36.97 94.69-2.92 3.08-5.46 5.6-5.66 5.6-0.19 0-0.16-0.56 0.07-1.25 7.93-23.67 13.44-50.23 15.65-75.47" fill="rgba(114,109,155,1)"/>
 <path d="m317.86 74.92c12.41-10.07 69.14 14.99 69.14 30.54 0 0.3-4.21 0.54-9.35 0.54-11.35 0-15.65 1.24-15.65 4.51 0 2.96 1.23 3.33 7.45 2.27 18.42-3.15 25.99 4.28 17.3 16.97-4.71 6.87-27.12 30.87-30.43 32.59-1.55 0.8-3.83 1.72-5.07 2.06-1.37 0.36-3.66-0.18-5.85-1.4-14.88-8.24-37.35-80.12-27.54-88.08" fill="rgba(81,81,122,1)"/>
 <path d="m375 348c1.01-8.94 3.38-14.98 8.57-25.56 5.67-11.55 8.69-19.45 12.96-33.87 7.64-25.8 15.18-34.57 29.71-34.57 6.36 0 9.25-2.09 6.38-4.62-3.26-2.88-12.72-1.3-21.35 3.57-8.8 4.96-8.51 5.23-7.2-6.55 1.27-11.5 2.27-12.98 10.12-15.05 18.11-4.75 39.46 11.18 44.33 33.1 5.43 24.41-3.9 44.21-26.85 56.98-13.23 7.37-18.67 7.59-18.67 0.76 0-16.12-11.78-18.58-14.04-2.94-1.26 8.7-1.74 9.2-7.97 8.31-4.99-0.71-4.99-0.71-9.02 8.61-2.21 5.13-4.46 10.12-5 11.08l-0.97 1.75zm40.89-55.57c-1.61 4.45 0.73 10.09 6.28 15.1 2.11 1.91 4.75 3.47 5.87 3.47s3.85-0.92 6.07-2.05c10.96-5.6 11.39-21.71 0.48-18.35-3.1 0.95-3.79 0.84-5.32-0.87-4.5-4.99-11.08-3.67-13.38 2.7" fill="rgba(252,242,239,1)"/>
 <path d="m425.76 127.4c-3.26-2.51-7.35-4.78-9.09-5.07-3.12-0.5-3.16-0.58-2.82-5.47 0.19-2.73 0.69-4.83 1.1-4.66 0.41 0.16 3.7 1.65 7.32 3.3 5.46 2.5 6.79 2.78 7.9 1.67 2.48-2.47-4.7-8.67-13.17-11.37-2.45-0.78 0.67-3.75 6.75-6.45 3.74-1.65 5.25-2.89 5.25-4.27 0-3.63-3.8-3.55-11.21 0.25-6.92 3.56-6.92 3.56-9.02-0.14-1.15-2.03-2.74-4.22-3.53-4.87-8.7-7.16 34.5-41.41 49.22-39.02 14.15 2.3 20.03 65.02 8.31 88.64-2.04 4.09-2.66 4.59-6.02 4.81-3.09 0.21-5.61-0.89-14.41-6.28-5.86-3.59-13.32-8.57-16.58-11.07" fill="rgba(81,81,122,1)"/>
 <path d="m397.89 395c-12.38-37.1-13.93-44.65-10.96-53.26 2.57-7.47 2.57-7.47 6.07-6.96 4.49 0.64 6 1.87 6 4.9 0 3.18 4.76 6.28 8.53 5.56 3.05-0.58 5.45-4.27 5.46-8.38 0.01-2.37 1.56-3.86 4.01-3.86 0.46 0 1.57 7.54 2.47 16.75 2.13 21.84 5.61 39.91 11.3 58.61 10.25 33.72 4.62 54-18.07 65.1-3.96 1.94-9.34 3.75-11.95 4.03-4.75 0.51-4.75 0.51-0.67-10.24 8.63-22.76 8.06-41.52-2.19-72.25" fill="rgba(114,109,155,1)"/>
 <path d="m363.3 390.76c0.2-14.81 0.2-14.81 8.68-24.68l8.48-9.86c15.32 52.17 16.48 62.89 12.99 77.78-4.48 19.06-19.87 36.25-35.45 39.58-3.57 0.76-7.74 1.39-9.25 1.4-2.75 0.02-2.75 0.02 0.31-5.73 7.21-13.55 13.85-50.15 14.24-78.49" fill="rgba(114,109,155,1)"/>
 <path d="m437.48 409.81c-5.64-12.09-13.48-53.01-13.48-70.4 0-7.22 0-7.22 6.48-10.25 3.56-1.67 8.54-4.46 11.07-6.19 5.74-3.95 5.21-4.76 7.99 12.21 5.64 34.49 14.59 56.75 28.75 71.5 9.18 9.56 8.85 11.35-2.72 14.84-2.71 0.81-7.78 1.48-11.25 1.48-3.48 0-8.37-0.65-10.88-1.45-9-2.86-13.28-6-15.96-11.74" fill="rgba(114,109,155,1)"/>
 <path d="m55 177c7.47-75.66 43.96-124.14 91.58-134.21 14.24-3.01 14.42-2.44 2.23 6.9-34.76 26.62-68.25 75.45-82.69 120.56l-3.12 9.75-2.25-0.28c-1.24-0.15-3.04-0.82-5.75-2.72z" fill="rgba(170,193,234,1)"/>
 <path d="m128.38 443c-6.69-14.9-15.34-61.05-15.37-81.99-0.01-6.49-0.01-6.49 6.32 2 6.29 8.43 14.48 16.3 24.27 23.31 5.1 3.65 5.1 3.65 5.68 16.92 1.12 25.46 8.07 46.43 19.88 60.02 6.1 7.03 6.1 7.03 3.72 8.35-1.31 0.72-3.62 1.34-5.13 1.35-1.51 0.02-6.69-1.77-11.5-3.99-12.86-5.93-23.19-15.56-27.87-25.97" fill="rgba(160,181,244,0.988235)"/>
 <path d="m154.35 404.75c-0.78-12.94-2.47-12.37 14.44-4.83 7.15 3.2 16.62 6.36 25.88 8.64l14.6 3.6c-1.6 34.89-4.9 41.16-21.25 50.95-3.57 2.14-6.83 3.89-7.25 3.89-0.43 0-3.02-2.3-5.78-5.12-11.38-11.62-19.19-33.22-20.64-57.13" fill="rgba(160,181,244,0.988235)"/>
 <path d="m370.14 206.86c-20.33-9.43-19.5-7.29-11.1-28.27 6.9-17.23 23.2-36.94 25.03-30.28 1.09 3.92 6.41 9.85 13.62 15.19 4.06 3 4.06 3 4.66 30.75 0.51 24.03 0.4 27.75-0.88 27.75-0.81 0-4.28-1.59-7.72-3.54s-14.06-7.17-23.61-11.6" fill="rgba(81,81,122,1)"/>
 <path d="m358 391-1 11c-1.54 31.81-11.65 67.38-17.44 69.45-3.06 1.1-17.39-3.13-22.21-6.55-2.79-1.98-2.79-1.98 1.96-15.76 3.73-10.86 5.26-17.39 7.2-30.72 1.35-9.3 2.69-17.9 2.98-19.1 0.63-2.69 26.42-17.85 27.7-16.29 0.45 0.55 0.81 2.56 0.81 4.48z" fill="rgba(117,132,206,1)"/>
 <path d="m428.29 179.11c-7.59-19.4-7.59-19.4-4.54-23.72 2.49-3.5 5.26-10.1 6.63-15.78 0.87-3.63 22.57 13.63 31.94 25.42l9.8 12.32c-11.42 16.49-23.89 32.19-27.33 35.4-1.33 1.24-2.73 2.25-3.1 2.25-0.38 0-1.84-3.71-3.25-8.25s-5.97-16.98-10.15-27.64" fill="rgba(81,81,122,1)"/>
 <path d="m261 462 2-2c28.91-4.11 28.91-4.11 35.21 0.63 3.46 2.61 11.46 7.25 17.79 10.31 11.5 5.56 11.5 5.56 5.5 8.34-12.06 5.6-64.41 15.15-67.28 12.27-0.32-0.32 1.53-2.2 4.12-4.18 9.67-7.39 12.32-19.94 5.09-24.01z" fill="rgba(252,242,239,1)"/>
 <path d="m185.23 480.89c-9.65-3.83-9.47-3.59-4.71-6.2 8.15-4.47 23.07-14.55 25.75-17.4 2.76-2.94 2.76-2.94 12.74-0.69 5.49 1.23 12.94 2.56 16.56 2.94 6.59 0.71 6.59 0.71 2.57 2.51-5.37 2.4-7.76 7.95-6.09 14.13 1.07 3.99 10.57 14.82 12.99 14.82 0.53 0 0.96 0.23 0.96 0.5 0 0.28-1.57 0.5-3.5 0.5-1.92 0-9.01-0.69-15.75-1.53-15.6-1.96-31.66-5.66-41.52-9.58" fill="rgba(252,242,239,1)"/>
 <path d="m215 421.32c0-8.55 0-8.55 2.75-7.92 7.53 1.74 44.82 1.66 55.75-0.12 11-1.78 11-1.78 11.65 3.22 1.63 12.52 1.85 12.09-7.4 14.58-6.79 1.82-11.56 2.28-27 2.57-13.75 0.26-20.77-0.05-26.32-1.13-9.91-1.95-9.43-1.37-9.43-11.2" fill="rgba(252,242,239,1)"/>
 <path d="m180 280v-10c9.31-1.54 10.95 0.24 12 8.31 3.18 24.53-16.85 42.58-35.39 31.88-15.85-9.16-20.11-44.29-4.95-40.89 2.03 0.46 2.34 1.13 2.34 5.07 0 6.5 3.37 15.65 6.82 18.54 6.36 5.31 17.03-0.05 18.58-9.34z" fill="rgba(117,132,206,1)"/>
 <path d="m299 279.33c0-9.28 0.75-10.33 7.43-10.33 3.57 0 3.57 0 3.57 5.59 0 7.53 3.02 14.64 7.37 17.33 9.7 6 18.63-2.43 18.63-17.59 0-5.61 0-5.61 5.75-4.93 6.5 0.76 7.07 1.47 7.18 8.81 0.18 11.95-6.31 25.54-14.74 30.88-3.9 2.48-5.59 2.91-11.39 2.91-5.58 0-7.53-0.46-10.88-2.57-8.77-5.52-12.92-15.2-12.92-30.1" fill="rgba(117,132,206,1)"/>
 <path d="m295.05 439.26c-0.67-6.19-1.63-11.5-2.13-11.81-0.51-0.31-0.92-4.3-0.92-8.85 0-8.29 0-8.29 8.1-10.51 4.45-1.22 11.51-3.53 15.68-5.14 4.17-1.6 7.74-2.77 7.92-2.59 2.06 2.07-6.4 41.34-11.54 53.57-1.63 3.89-3.46 7.07-4.06 7.07-0.61 0-3.52-2.36-6.47-5.25-5.37-5.25-5.37-5.25-6.58-16.49" fill="rgba(117,132,206,1)"/>
 <path d="m409 205-1-23c0-12.51 2.01-16 5.81-16 2.69 0 5.94 7.15 16.16 35.5 7.21 20 7.21 20 10.87 21.1 3.28 0.98 3.66 1.44 3.66 4.5 0 4.08-0.17 4.08-11-0.14-7.37-2.88-8.65-3.08-16.25-2.54-8.25 0.59-8.25 0.59-8.25-9.41z" fill="rgba(114,109,155,1)"/>
 <path d="m212.99 440.98c0.98-3.52 0.98-3.52 15.24-1.54 17.18 2.38 39.68 1.37 52.66-2.37 4.06-1.17 7.49-2 7.62-1.85 0.12 0.15 0.53 3.05 0.9 6.44 0.79 7.27-0.99 8.26-19.51 10.86-5.72 0.81-14.11 1.47-18.65 1.47-4.54 0.01-12.41-0.66-17.5-1.49-21.42-3.47-22.79-4.23-20.76-11.52" fill="rgba(81,81,122,1)"/>
 <path d="m149.41 353.71c13.08-19.12 14.35-20.37 19.33-19.14 5.59 1.39 8.77 6.29 6.92 10.68-0.76 1.79-7.29 10.79-14.52 20-13.14 16.75-13.14 16.75-17.64 13.15-6.72-5.37-6.41-6.68 5.91-24.69" fill="rgba(252,242,239,1)"/>
 <path d="m392.88 133.8c2.89-3.22 2.89-3.22 7.89-1.86 4.73 1.29 5.17 1.24 8.18-0.9 6-4.27 14.05-0.17 14.05 7.17 0 5.47-2.17 9.99-7.58 15.77-3.52 3.76-5.41 5.02-7.56 5.02-1.57 0-5.34-1.57-8.36-3.48-9.76-6.17-12.49-15.14-6.62-21.72" fill="rgba(252,242,239,1)"/>
 <path d="m131.56 174.24c43.94 0.26 43.94 0.26 43.94 2.76s0 2.5-44.25 2.75-44.25 0.25-44.82-1.88c-1.02-3.78 0.45-3.9 45.13-3.63" fill="rgba(22,20,45,1)"/>
 <path d="m353 338-2-3c-0.69-4.84-31.21-4.36-32.25-1.25l-0.75 2.25v15l3 2 26 1c-34.71 1.43-34.77 1.43-39.63-1.11-9.57-5.01-9.72-17.49-0.25-21.94 3.69-1.73 6.38-1.95 24.26-1.93 22.51 0.01 23.2 0.18 22.27 5.38z" fill="rgba(160,181,244,0.988235)"/>
 <path d="m139.85 126c42.1 0 43.46 0.15 41.79 4.49-0.5 1.31-5.85 1.51-41.11 1.51-34.87 0-40.62-0.21-41.14-1.48-1.87-4.52-1.86-4.52 40.46-4.52" fill="rgba(22,20,45,1)"/>
 <path d="m415.89 292.43c2.3-6.37 8.88-7.69 13.38-2.7 1.53 1.71 2.22 1.82 5.32 0.87 10.91-3.36 10.48 12.75-0.48 18.35-2.22 1.13-4.95 2.05-6.07 2.05s-3.76-1.56-5.87-3.47c-5.55-5.01-7.89-10.65-6.28-15.1" fill="rgba(22,20,45,1)"/>
 <path d="m246.98 467.44c2.12 1.18 2.89 1.16 5.32-0.1 11.25-5.81 13.77 6.5 3.13 15.26-2.94 2.42-5.81 4.4-6.39 4.4-0.57 0-2.5-1.2-4.29-2.67-11.37-9.33-9.51-23.39 2.23-16.89" fill="rgba(252,242,239,1)"/>
 <path d="m113.33 338.34c0.14-0.14 3.81 0.87 8.14 2.25 6.42 2.03 10.84 2.59 12.21 1.55 0.1-0.08-0.07 2.26-0.37 5.19-0.52 4.95-0.33 5.58 2.71 9.05 3.27 3.72 3.27 3.72 0.13 8.67-3.15 4.95-3.15 4.95-10.03-3.45-5.73-7-14-22.05-12.79-23.26" fill="rgba(252,242,239,1)"/>
 <path d="m395.56 114.56c-0.38-3.88-1.45-9.76-2.4-13.06-1.91-6.7-1.33-7.88 3.61-7.31 7 0.81 13.37 19.07 9.3 26.68-0.63 1.17-1.57 2.13-2.11 2.13-0.53 0-2.48-0.31-4.34-0.69-3.37-0.68-3.38-0.71-4.06-7.75" fill="rgba(81,81,122,1)"/>
 <path d="m323 348v-5.28c0-5.28 0-5.28 11-6.72 13 0 13 0 13 6s0 6-12 6z" fill="rgba(252,242,239,1)"/>
 <path d="m160.34 273.55c0.62-4.55 0.62-4.55 6.58-4.55 7.02 0 7.41 0.43 7.41 8.2 0 4.46-0.52 6.57-2.19 8.83-1.41 1.9-3.09 2.97-4.67 2.97-1.36 0-3.14-0.72-3.96-1.59-2.39-2.56-3.85-8.93-3.17-13.86" fill="rgba(84,96,142,1)"/>
 <path d="m317.2 274.41c0.3-5.91 0.3-5.91 6.3-5.91 6.74 0 7.45 1.32 6.11 11.29-0.45 3.34-1.25 4.73-3.6 6.25-2.26 1.47-3.48 1.71-4.89 0.96-2.85-1.51-4.26-6.04-3.92-12.59" fill="rgba(84,96,142,1)"/>
 <path d="m55 223v-46c2.71 1.9 4.51 2.57 5.75 2.72l2.25 0.28c-1.94 9.69-3.29 19.14-4.25 27.25l-1.75 14.75z" fill="rgba(160,181,244,0.988235)"/>
 <path d="m167.03 365.21c4.81-6.29 4.81-6.29 8.39-3.15 4.59 4.04 4.8 7.87 0.66 12.02-1.61 1.6-3.86 2.92-5 2.92-1.15 0-2.9-0.43-3.89-0.96-5.27-2.8-5.29-4.11-0.16-10.83" fill="rgba(252,242,239,1)"/>
 <path d="m244.93 349c11.17 0 14.51 1.34 12.31 4.94-1.14 1.87-2.23 2.06-11.75 2.06-9.27 0-10.63-0.22-11.68-1.92-2.37-3.83 0.36-5.08 11.12-5.08" fill="rgba(22,20,45,1)"/>
 <path d="m404.76 313.84c2.58-2.58 3.31 0.7 3.02 13.74-0.25 11.42-0.48 12.95-2.03 13.17-0.96 0.14-2.02-0.41-2.36-1.22-1.11-2.69 0.04-24.36 1.37-25.69" fill="rgba(252,242,239,1)"/>
 <path d="m145.45 340c5.86 0 6.24 2.1 1.59 8.94-2.26 3.33-4.55 6.06-5.08 6.06s-1.63-0.85-2.46-1.89c-3.72-4.7 0.1-13.11 5.95-13.11" fill="rgba(252,242,239,1)"/>
 <path d="m140 214h2c3.4 20.5 3.4 20.5 0.61 22-5.23 2.81-5.94 0.85-4.15-11.43z" fill="rgba(252,242,239,1)"/>
 <path d="m176 39h101z" fill="rgba(81,81,122,1)"/>
 <path d="m55 246v-15l2-1v22z" fill="rgba(81,81,122,1)"/>
 <path d="m321 353 26 1z" fill="rgba(84,96,142,1)"/>
 <path d="m334 336c-11 1.44-11 1.44-11 6.72v5.28c-1.45-12-1.45-12 4.78-12z" fill="rgba(206,198,198,1)"/>
 <path d="m408 182 1 23z" fill="rgba(81,81,122,1)"/>
 <path d="m182.9 235.99c0.6 1.92 1.1 3.84 1.1 4.25 0 0.42-0.9 0.76-2 0.76-1.28 0-1.96-0.63-1.9-1.75 0.3-5.34 1.64-6.9 2.8-3.26" fill="rgba(132,130,137,1)"/>
 <path d="m55 231v-8l2-1v8z" fill="rgba(84,96,142,1)"/>
 <path d="m318 336v15z" fill="rgba(81,81,122,1)"/>
 <path d="m353 284v-13z" fill="rgba(132,130,137,1)"/>
 <path d="m62 226v12z" fill="rgba(81,81,122,1)"/>
 <path d="m357 402 1-11z" fill="rgba(84,96,142,1)"/>
 <path d="m180 280v-10z" fill="rgba(81,81,122,1)"/>
 <path d="m270 223 1-10z" fill="rgba(132,130,137,1)"/>
 <path d="m351 335 2 3c-1.18 3.03-1.45 2.63-1.68 0.25z" fill="rgba(81,81,122,1)"/>
 <path d="m263 460-2 2c-3.12-1.19-2.9-1.41-0.75-1.67z" fill="rgba(132,130,137,1)"/>
 <path d="m252 461.25c0 0.41-0.9 0.75-2 0.75-1.33 0-1.71-0.38-1.15-1.13 0.9-1.19 3.15-0.91 3.15 0.38" fill="rgba(132,130,137,1)"/>
 <path d="m368.34 345.83c0.63-1.02 1.31-1.37 1.51-0.78s-0.14 1.72-0.75 2.51c-0.6 0.79-1.28 1.14-1.51 0.78-0.22-0.36 0.11-1.49 0.75-2.51" fill="rgba(84,96,142,1)"/>
 <path d="m374 352-1-1 2-3 1 1z" fill="rgba(206,198,198,1)"/>
 <path d="m276 225 1 4c-1.34 2.16-2.37-0.1-1.69-2.03z" fill="rgba(81,81,122,1)"/>
 <path d="m140 214c1.25-3.42 1.29-3.42 1.64-1.75l0.36 1.75z" fill="rgba(132,130,137,1)"/>
</svg>
